<?xml version="1.0" standalone="no"?>
<!DOCTYPE svg PUBLIC "-//W3C//DTD SVG 20010904//EN"
 "http://www.w3.org/TR/2001/REC-SVG-20010904/DTD/svg10.dtd">
<svg version="1.0" xmlns="http://www.w3.org/2000/svg"
 width="700.000000pt" height="700.000000pt" viewBox="0 0 700.000000 700.000000"
 preserveAspectRatio="xMidYMid meet">
<metadata>
Created by potrace 1.11, written by Peter Selinger 2001-2013
</metadata>
<g transform="translate(0.000000,700.000000) scale(0.100000,-0.100000)"
fill="#000000" stroke="none">
<path d="M3245 6994 c-273 -27 -411 -50 -619 -104 -247 -63 -406 -121 -646
-237 -766 -368 -1376 -1008 -1708 -1793 -117 -276 -204 -599 -247 -920 -22
-163 -30 -532 -16 -715 105 -1304 924 -2439 2129 -2950 294 -124 589 -204 927
-250 162 -22 534 -31 710 -16 991 82 1884 564 2493 1348 648 833 883 1925 637
2959 -298 1250 -1270 2245 -2510 2569 -309 81 -496 105 -840 110 -148 1 -288
1 -310 -1z m391 -662 c66 -34 101 -69 133 -134 26 -51 31 -73 31 -134 0 -136
40 -90 -945 -1075 -660 -660 -893 -887 -930 -907 -41 -21 -64 -26 -125 -26
-127 -1 -223 61 -275 175 -23 52 -27 71 -23 133 2 49 11 87 28 121 19 40 207
234 904 933 997 1000 936 947 1081 940 56 -3 93 -11 121 -26z m863 -857 c175
-96 209 -335 68 -473 -61 -60 -126 -86 -214 -86 -124 1 -216 62 -271 182 -21
47 -24 65 -20 131 8 123 73 218 181 261 77 30 184 24 256 -15z m836 -844 c157
-69 223 -256 145 -412 -15 -31 -287 -310 -908 -932 -981 -982 -932 -939 -1061
-939 -214 0 -354 205 -280 409 20 55 63 100 908 946 487 488 902 898 921 910
78 49 189 56 275 18z m-1686 -16 c62 -34 95 -71 128 -142 38 -83 31 -206 -16
-277 -11 -16 -327 -340 -704 -721 -455 -459 -692 -706 -708 -736 -31 -59 -31
-138 0 -199 32 -65 988 -1013 1051 -1043 62 -29 158 -29 224 1 40 18 179 153
740 716 657 659 694 694 746 711 206 69 403 -68 404 -281 1 -129 38 -86 -937
-1064 -535 -537 -893 -888 -916 -900 -86 -43 -228 -42 -302 3 -20 12 -433 416
-917 897 -727 722 -885 884 -904 925 -34 74 -33 212 2 278 18 33 284 308 890
918 475 479 881 883 902 896 63 42 107 54 188 50 60 -3 87 -9 129 -32z m2547
-834 c62 -28 108 -72 142 -136 23 -43 27 -62 27 -135 0 -73 -4 -92 -27 -136
-55 -105 -170 -170 -286 -161 -185 14 -310 179 -272 360 38 185 240 286 416
208z m-5118 -22 c65 -32 99 -66 135 -133 32 -59 32 -203 0 -262 -36 -67 -70
-101 -135 -133 -109 -55 -242 -39 -332 40 -135 119 -135 329 0 448 58 51 111
69 200 70 60 1 80 -4 132 -30z"/>
</g>
</svg>
